<?xml version="1.0" standalone="no"?>
<!DOCTYPE svg PUBLIC "-//W3C//DTD SVG 20010904//EN"
 "http://www.w3.org/TR/2001/REC-SVG-20010904/DTD/svg10.dtd">
<svg version="1.0" xmlns="http://www.w3.org/2000/svg"
 width="512.000000pt" height="512.000000pt" viewBox="0 0 512.000000 512.000000"
 preserveAspectRatio="xMidYMid meet">
<metadata>
Created by potrace 1.11, written by Peter Selinger 2001-2013
</metadata>
<g transform="translate(0.000000,512.000000) scale(0.100000,-0.100000)"
fill="#000000" stroke="none">
<path d="M2325 4860 c-989 -102 -1805 -826 -2019 -1790 -14 -63 -31 -155 -38
-205 -16 -116 -16 -474 0 -590 60 -425 229 -818 490 -1145 322 -402 789 -692
1292 -804 188 -41 282 -51 505 -50 238 0 358 15 572 69 829 213 1481 888 1667
1725 41 186 51 283 51 500 0 217 -10 314 -51 500 -75 337 -233 666 -452 940
-212 264 -475 473 -787 625 -220 108 -427 173 -670 210 -122 19 -437 27 -560
15z m552 -1341 c106 -33 181 -79 253 -156 98 -104 140 -219 140 -383 -1 -237
-98 -405 -292 -499 -130 -63 -189 -71 -547 -71 l-311 0 -2 -407 -3 -408 -77
-3 -78 -3 0 981 0 981 418 -3 c413 -4 418 -4 499 -29z"/>
<path d="M2120 2975 l0 -437 313 5 c249 3 324 8 371 21 130 37 214 106 269
224 27 57 32 81 35 164 9 211 -81 356 -267 430 -53 21 -72 23 -388 26 l-333 3
0 -436z"/>
</g>
</svg>
